<svg xmlns="http://www.w3.org/2000/svg" viewBox="0 0 64 64" fill="none">
  <!-- Background Circle -->
  <circle cx="32" cy="32" r="30" fill="#2563eb"/>
  
  <!-- Database Icon (3 Cylinder Layers) -->
  <g fill="#ffffff">
    <!-- Top Database Layer -->
    <ellipse cx="32" cy="20" rx="16" ry="5" fill="#ffffff"/>
    <path d="M 16 20 L 16 25 Q 16 28 32 28 Q 48 28 48 25 L 48 20" fill="#e0e7ff" stroke="#ffffff" stroke-width="1"/>
    <ellipse cx="32" cy="25" rx="16" ry="3" fill="#ffffff"/>
    
    <!-- Middle Database Layer -->
    <ellipse cx="32" cy="32" rx="16" ry="5" fill="#ffffff"/>
    <path d="M 16 32 L 16 37 Q 16 40 32 40 Q 48 40 48 37 L 48 32" fill="#e0e7ff" stroke="#ffffff" stroke-width="1"/>
    <ellipse cx="32" cy="37" rx="16" ry="3" fill="#ffffff"/>
    
    <!-- Bottom Database Layer -->
    <ellipse cx="32" cy="44" rx="16" ry="5" fill="#ffffff"/>
    <path d="M 16 44 L 16 49 Q 16 52 32 52 Q 48 52 48 49 L 48 44" fill="#e0e7ff" stroke="#ffffff" stroke-width="1"/>
    <ellipse cx="32" cy="49" rx="16" ry="3" fill="#ffffff"/>
  </g>
  
  <!-- Data Spark Effect (top right) -->
  <g fill="#60a5fa" opacity="0.8">
    <circle cx="48" cy="16" r="2"/>
    <circle cx="52" cy="20" r="1.5"/>
    <circle cx="50" cy="12" r="1"/>
  </g>
</svg>
